# xmcd
#
# Track frame offsets: 
#        150
#        16772
#        38410
#        58485
#        83070
#        101907
#        118307
#        134797
#        163102
#        188937
#        209315
#        227610
#
# Disc length: 3301 seconds
#
# Revision: 15
# Processed by: cddbd v1.5.2PL0 Copyright (c) Steve Scherf et al.
# Submitted via: ExactAudioCopy v1.0b1
#
DISCID=a90ce30c
DTITLE=Bonnie Raitt - Longing In Their Hearts
DYEAR=1994
DGENRE=Country
TTITLE0=Love Sneakin' Up On You
TTITLE1=Longing In Their Hearts
TTITLE2=You
TTITLE3=Cool Clear Water
TTITLE4=Circle Dance
TTITLE5=I Sho Do
TTITLE6=Dimming Of The Day
TTITLE7=Feeling Of Falling
TTITLE8=Steal Your Heart Away
TTITLE9=Storm Warning
TTITLE10=Hell To Pay
TTITLE11=Shadow Of Doubt
EXTD=1994 Capital Records Inc.\nCDP 0777-7 81427 2 0 YEAR: 1994
EXTT0=
EXTT1=
EXTT2=
EXTT3=
EXTT4=
EXTT5=
EXTT6=
EXTT7=
EXTT8=
EXTT9=
EXTT10=
EXTT11=
PLAYORDER=
